<mxfile host="Electron" modified="2024-01-19T23:16:11.323Z" agent="Mozilla/5.0 (Windows NT 10.0; Win64; x64) AppleWebKit/537.36 (KHTML, like Gecko) draw.io/22.1.16 Chrome/120.0.6099.109 Electron/28.1.0 Safari/537.36" etag="fYDdaFzVkWS9qnjMl2wn" version="22.1.16" type="device">
  <diagram name="Page-1" id="c4acf3e9-155e-7222-9cf6-157b1a14988f">
    <mxGraphModel dx="2074" dy="2297" grid="1" gridSize="10" guides="1" tooltips="1" connect="1" arrows="1" fold="1" page="1" pageScale="1" pageWidth="850" pageHeight="1100" background="none" math="0" shadow="0">
      <root>
        <mxCell id="0" />
        <mxCell id="1" parent="0" />
        <mxCell id="b37yQvhehZbOhli8LMTc-21" value="" style="group" parent="1" vertex="1" connectable="0">
          <mxGeometry x="160" y="-1080" width="550" height="520" as="geometry" />
        </mxCell>
        <mxCell id="nCatC-4cjdaNab20l5gE-1" value="Use" style="endArrow=classic;endSize=12;html=1;rounded=0;endFill=1;" parent="b37yQvhehZbOhli8LMTc-21" edge="1">
          <mxGeometry width="160" relative="1" as="geometry">
            <mxPoint x="220" y="279.43" as="sourcePoint" />
            <mxPoint x="500" y="279.43" as="targetPoint" />
          </mxGeometry>
        </mxCell>
        <mxCell id="nCatC-4cjdaNab20l5gE-2" value="Extends" style="endArrow=block;endSize=16;endFill=0;html=1;rounded=0;" parent="b37yQvhehZbOhli8LMTc-21" edge="1">
          <mxGeometry width="160" relative="1" as="geometry">
            <mxPoint x="220" y="199.43000000000006" as="sourcePoint" />
            <mxPoint x="500" y="199.43000000000006" as="targetPoint" />
          </mxGeometry>
        </mxCell>
        <mxCell id="nCatC-4cjdaNab20l5gE-5" value="Classname" style="swimlane;fontStyle=1;align=center;verticalAlign=top;childLayout=stackLayout;horizontal=1;startSize=26;horizontalStack=0;resizeParent=1;resizeParentMax=0;resizeLast=0;collapsible=1;marginBottom=0;whiteSpace=wrap;html=1;" parent="b37yQvhehZbOhli8LMTc-21" vertex="1">
          <mxGeometry x="20" y="240" width="160" height="86" as="geometry">
            <mxRectangle x="40" y="-440" width="100" height="30" as="alternateBounds" />
          </mxGeometry>
        </mxCell>
        <mxCell id="nCatC-4cjdaNab20l5gE-6" value="+ field: type" style="text;strokeColor=none;fillColor=none;align=left;verticalAlign=top;spacingLeft=4;spacingRight=4;overflow=hidden;rotatable=0;points=[[0,0.5],[1,0.5]];portConstraint=eastwest;whiteSpace=wrap;html=1;" parent="nCatC-4cjdaNab20l5gE-5" vertex="1">
          <mxGeometry y="26" width="160" height="26" as="geometry" />
        </mxCell>
        <mxCell id="nCatC-4cjdaNab20l5gE-7" value="" style="line;strokeWidth=1;fillColor=none;align=left;verticalAlign=middle;spacingTop=-1;spacingLeft=3;spacingRight=3;rotatable=0;labelPosition=right;points=[];portConstraint=eastwest;strokeColor=inherit;" parent="nCatC-4cjdaNab20l5gE-5" vertex="1">
          <mxGeometry y="52" width="160" height="8" as="geometry" />
        </mxCell>
        <mxCell id="nCatC-4cjdaNab20l5gE-8" value="+ method(type): type" style="text;strokeColor=none;fillColor=none;align=left;verticalAlign=top;spacingLeft=4;spacingRight=4;overflow=hidden;rotatable=0;points=[[0,0.5],[1,0.5]];portConstraint=eastwest;whiteSpace=wrap;html=1;" parent="nCatC-4cjdaNab20l5gE-5" vertex="1">
          <mxGeometry y="60" width="160" height="26" as="geometry" />
        </mxCell>
        <mxCell id="nCatC-4cjdaNab20l5gE-12" value="0..*" style="endArrow=classic;html=1;endSize=12;startArrow=diamondThin;startSize=14;startFill=0;edgeStyle=orthogonalEdgeStyle;align=left;verticalAlign=bottom;rounded=0;endFill=1;" parent="b37yQvhehZbOhli8LMTc-21" edge="1">
          <mxGeometry x="-1" y="3" relative="1" as="geometry">
            <mxPoint x="220" y="359.42999999999995" as="sourcePoint" />
            <mxPoint x="500" y="359.42999999999995" as="targetPoint" />
          </mxGeometry>
        </mxCell>
        <mxCell id="b37yQvhehZbOhli8LMTc-3" value="fieldName" style="edgeLabel;html=1;align=left;verticalAlign=middle;resizable=0;points=[];" parent="nCatC-4cjdaNab20l5gE-12" vertex="1" connectable="0">
          <mxGeometry x="-1" relative="1" as="geometry">
            <mxPoint x="25" y="-10" as="offset" />
          </mxGeometry>
        </mxCell>
        <mxCell id="nCatC-4cjdaNab20l5gE-13" value="0..*" style="endArrow=classic;html=1;endSize=12;startArrow=diamondThin;startSize=14;startFill=1;edgeStyle=orthogonalEdgeStyle;align=left;verticalAlign=bottom;rounded=0;endFill=1;" parent="b37yQvhehZbOhli8LMTc-21" edge="1">
          <mxGeometry x="-1" y="3" relative="1" as="geometry">
            <mxPoint x="220" y="319.43" as="sourcePoint" />
            <mxPoint x="500" y="319.43" as="targetPoint" />
            <mxPoint as="offset" />
          </mxGeometry>
        </mxCell>
        <mxCell id="b37yQvhehZbOhli8LMTc-2" value="fieldName" style="edgeLabel;html=1;align=left;verticalAlign=middle;resizable=0;points=[];" parent="nCatC-4cjdaNab20l5gE-13" vertex="1" connectable="0">
          <mxGeometry x="-1" relative="1" as="geometry">
            <mxPoint x="25" y="-10" as="offset" />
          </mxGeometry>
        </mxCell>
        <mxCell id="nCatC-4cjdaNab20l5gE-14" value="Create" style="endArrow=classic;endSize=12;dashed=1;html=1;rounded=0;endFill=1;" parent="b37yQvhehZbOhli8LMTc-21" edge="1">
          <mxGeometry width="160" relative="1" as="geometry">
            <mxPoint x="220" y="239.43000000000006" as="sourcePoint" />
            <mxPoint x="500" y="239.43000000000006" as="targetPoint" />
          </mxGeometry>
        </mxCell>
        <mxCell id="b37yQvhehZbOhli8LMTc-4" value="Note" style="shape=note;size=20;whiteSpace=wrap;html=1;" parent="b37yQvhehZbOhli8LMTc-21" vertex="1">
          <mxGeometry x="20" y="440" width="80" height="40" as="geometry" />
        </mxCell>
        <mxCell id="b37yQvhehZbOhli8LMTc-5" value="" style="endArrow=none;html=1;rounded=0;" parent="b37yQvhehZbOhli8LMTc-21" edge="1">
          <mxGeometry relative="1" as="geometry">
            <mxPoint x="220" y="159.43000000000006" as="sourcePoint" />
            <mxPoint x="500" y="159.43000000000006" as="targetPoint" />
          </mxGeometry>
        </mxCell>
        <mxCell id="b37yQvhehZbOhli8LMTc-7" value="&lt;i style=&quot;border-color: var(--border-color); font-weight: 400;&quot;&gt;&amp;lt;&amp;lt;Interface&amp;gt;&amp;gt;&lt;/i&gt;&lt;br&gt;Interface" style="swimlane;fontStyle=1;align=center;verticalAlign=top;childLayout=stackLayout;horizontal=1;startSize=40;horizontalStack=0;resizeParent=1;resizeParentMax=0;resizeLast=0;collapsible=1;marginBottom=0;whiteSpace=wrap;html=1;" parent="b37yQvhehZbOhli8LMTc-21" vertex="1">
          <mxGeometry x="20" y="360" width="160" height="66" as="geometry">
            <mxRectangle x="40" y="-320" width="110" height="40" as="alternateBounds" />
          </mxGeometry>
        </mxCell>
        <mxCell id="b37yQvhehZbOhli8LMTc-10" value="+ method(type): type" style="text;strokeColor=none;fillColor=none;align=left;verticalAlign=top;spacingLeft=4;spacingRight=4;overflow=hidden;rotatable=0;points=[[0,0.5],[1,0.5]];portConstraint=eastwest;whiteSpace=wrap;html=1;" parent="b37yQvhehZbOhli8LMTc-7" vertex="1">
          <mxGeometry y="40" width="160" height="26" as="geometry" />
        </mxCell>
        <mxCell id="b37yQvhehZbOhli8LMTc-14" value="&lt;i&gt;AbstractClassName&lt;/i&gt;" style="swimlane;fontStyle=1;align=center;verticalAlign=top;childLayout=stackLayout;horizontal=1;startSize=26;horizontalStack=0;resizeParent=1;resizeParentMax=0;resizeLast=0;collapsible=1;marginBottom=0;whiteSpace=wrap;html=1;" parent="b37yQvhehZbOhli8LMTc-21" vertex="1">
          <mxGeometry x="20" y="80" width="160" height="136" as="geometry">
            <mxRectangle x="40" y="-440" width="100" height="30" as="alternateBounds" />
          </mxGeometry>
        </mxCell>
        <mxCell id="b37yQvhehZbOhli8LMTc-15" value="+ publicField: type" style="text;strokeColor=none;fillColor=none;align=left;verticalAlign=top;spacingLeft=4;spacingRight=4;overflow=hidden;rotatable=0;points=[[0,0.5],[1,0.5]];portConstraint=eastwest;whiteSpace=wrap;html=1;" parent="b37yQvhehZbOhli8LMTc-14" vertex="1">
          <mxGeometry y="26" width="160" height="24" as="geometry" />
        </mxCell>
        <mxCell id="b37yQvhehZbOhli8LMTc-18" value="# protectedField: type" style="text;strokeColor=none;fillColor=none;align=left;verticalAlign=top;spacingLeft=4;spacingRight=4;overflow=hidden;rotatable=0;points=[[0,0.5],[1,0.5]];portConstraint=eastwest;whiteSpace=wrap;html=1;" parent="b37yQvhehZbOhli8LMTc-14" vertex="1">
          <mxGeometry y="50" width="160" height="26" as="geometry" />
        </mxCell>
        <mxCell id="b37yQvhehZbOhli8LMTc-19" value="- privateField: type" style="text;strokeColor=none;fillColor=none;align=left;verticalAlign=top;spacingLeft=4;spacingRight=4;overflow=hidden;rotatable=0;points=[[0,0.5],[1,0.5]];portConstraint=eastwest;whiteSpace=wrap;html=1;" parent="b37yQvhehZbOhli8LMTc-14" vertex="1">
          <mxGeometry y="76" width="160" height="26" as="geometry" />
        </mxCell>
        <mxCell id="b37yQvhehZbOhli8LMTc-16" value="" style="line;strokeWidth=1;fillColor=none;align=left;verticalAlign=middle;spacingTop=-1;spacingLeft=3;spacingRight=3;rotatable=0;labelPosition=right;points=[];portConstraint=eastwest;strokeColor=inherit;" parent="b37yQvhehZbOhli8LMTc-14" vertex="1">
          <mxGeometry y="102" width="160" height="8" as="geometry" />
        </mxCell>
        <mxCell id="b37yQvhehZbOhli8LMTc-17" value="&lt;i&gt;+ method(type): type&lt;/i&gt;" style="text;strokeColor=none;fillColor=none;align=left;verticalAlign=top;spacingLeft=4;spacingRight=4;overflow=hidden;rotatable=0;points=[[0,0.5],[1,0.5]];portConstraint=eastwest;whiteSpace=wrap;html=1;" parent="b37yQvhehZbOhli8LMTc-14" vertex="1">
          <mxGeometry y="110" width="160" height="26" as="geometry" />
        </mxCell>
        <mxCell id="b37yQvhehZbOhli8LMTc-20" value="Basic UML Components" style="shape=umlFrame;whiteSpace=wrap;html=1;pointerEvents=0;width=110;height=40;" parent="b37yQvhehZbOhli8LMTc-21" vertex="1">
          <mxGeometry width="550" height="520" as="geometry" />
        </mxCell>
      </root>
    </mxGraphModel>
  </diagram>
</mxfile>
